<svg width="48" height="66" viewBox="0 0 48 66" fill="none" xmlns="http://www.w3.org/2000/svg">
<path d="M14.907 3.23923C14.7423 1.54351 15.9665 0.00823235 17.6702 0.000288132C21.5595 -0.0178477 25.4252 0.796194 29.0487 2.40879C33.6221 4.44412 37.6687 7.68873 40.8298 11.8552C43.991 16.0217 46.1692 20.9814 47.1716 26.2951C48.174 31.6088 47.9696 37.1124 46.5765 42.3185C45.1833 47.5245 42.6445 52.2722 39.1849 56.1412C35.7253 60.0101 31.4516 62.8808 26.7425 64.4989C22.0334 66.1171 17.0342 66.4327 12.1877 65.4179C8.21003 64.5851 4.43603 62.8772 1.08819 60.4075C-0.162753 59.4847 -0.339409 57.7229 0.580074 56.4695C1.629 55.0397 3.67352 54.8387 5.14632 55.8264C7.63157 57.493 10.3765 58.6601 13.2528 59.2624C17.1791 60.0845 21.229 59.8287 25.044 58.5178C28.8589 57.207 32.3211 54.8814 35.1238 51.7471C37.9265 48.6128 39.9832 44.7666 41.1118 40.5491C42.2404 36.3316 42.406 31.873 41.594 27.5683C40.7819 23.2635 39.0173 19.2456 36.4564 15.8702C33.8955 12.4949 30.6173 9.86635 26.9123 8.2175C24.197 7.00907 21.3138 6.35418 18.4028 6.27438C16.6505 6.22635 15.0765 4.984 14.907 3.23923Z" fill="#D9D9D9" fill-opacity="0.3"/>
</svg>
