<svg width="48" height="66" viewBox="0 0 48 66" fill="none" xmlns="http://www.w3.org/2000/svg">
<path d="M14.9052 3.23932C14.7404 1.54362 15.9645 0.00830793 17.6682 0.000293407C21.5576 -0.0180031 25.4233 0.795882 29.0468 2.40833C33.6203 4.44348 37.6669 7.68792 40.8283 11.8543C43.9896 16.0206 46.168 20.9803 47.1705 26.2939C48.1731 31.6076 47.9689 37.1112 46.5759 42.3173C45.183 47.5234 42.6443 52.2712 39.1848 56.1403C35.7253 60.0093 31.4518 62.8802 26.7427 64.4985C22.0337 66.1169 17.0345 66.4327 12.1879 65.4182C8.21027 64.5855 4.43622 62.8778 1.0883 60.4082C-0.162682 59.4855 -0.339404 57.7237 0.580037 56.4702C1.62891 55.0404 3.67343 54.8393 5.14627 55.8269C7.63158 57.4934 10.3765 58.6604 13.2529 59.2626C17.1792 60.0845 21.2291 59.8286 25.044 58.5175C28.8589 57.2065 32.321 54.8808 35.1236 51.7464C37.9262 48.612 39.9828 44.7656 41.1112 40.5481C42.2397 36.3306 42.4051 31.872 41.5929 27.5673C40.7808 23.2626 39.016 19.2447 36.4549 15.8695C33.8939 12.4942 30.6157 9.86583 26.9106 8.21713C24.1952 7.00882 21.312 6.35404 18.4011 6.27436C16.6488 6.22639 15.0747 4.9841 14.9052 3.23932Z" fill="#26FF00"/>
</svg>
