<svg width="56" height="56" viewBox="0 0 56 56" fill="none" xmlns="http://www.w3.org/2000/svg">
<path d="M55.3016 27.6508C55.3016 33.1196 53.6799 38.4656 50.6416 43.0128C47.6033 47.5599 43.2848 51.104 38.2323 53.1968C33.1798 55.2896 27.6201 55.8372 22.2564 54.7703C16.8927 53.7034 11.9658 51.0699 8.09875 47.2029C4.23171 43.3358 1.59823 38.4089 0.531317 33.0452C-0.535594 27.6815 0.0119835 22.1218 2.10481 17.0693C4.19763 12.0168 7.7417 7.69831 12.2889 4.66C16.836 1.62169 22.182 -6.52149e-08 27.6508 0V1.50887C22.4804 1.50887 17.4262 3.04206 13.1271 5.91458C8.82812 8.78709 5.47744 12.8699 3.49882 17.6467C1.5202 22.4235 1.0025 27.6798 2.01119 32.7508C3.01988 37.8219 5.50966 42.4799 9.16568 46.1359C12.8217 49.7919 17.4797 52.2817 22.5508 53.2904C27.6218 54.2991 32.8781 53.7814 37.6549 51.8028C42.4317 49.8242 46.5145 46.4735 49.387 42.1745C52.2595 37.8755 53.7927 32.8212 53.7927 27.6508H55.3016Z" fill="#FF0000" fill-opacity="0.86"/>
</svg>
