<svg width="56" height="56" viewBox="0 0 56 56" fill="none" xmlns="http://www.w3.org/2000/svg">
<path d="M52.4765 15.4749C55.1487 20.9235 55.9543 27.0998 54.769 33.0515C53.5837 39.0031 50.4734 44.3996 45.9176 48.4086C41.3619 52.4177 35.6138 54.8167 29.5597 55.2356C23.5056 55.6546 17.4819 54.0702 12.4173 50.7269C7.35277 47.3836 3.52874 42.467 1.53495 36.7353C-0.458849 31.0037 -0.511681 24.7752 1.3846 19.0106C3.28088 13.2459 7.02094 8.26515 12.028 4.83641C17.0351 1.40767 23.0312 -0.278632 29.0915 0.0375576L29.0129 1.54438C23.2833 1.24544 17.6144 2.83972 12.8806 6.08136C8.14669 9.323 4.61071 14.032 2.81791 19.4821C1.02511 24.9322 1.07506 30.8207 2.96006 36.2396C4.84505 41.6585 8.4604 46.3068 13.2486 49.4677C18.0368 52.6286 23.7318 54.1264 29.4555 53.7303C35.1792 53.3343 40.6137 51.0662 44.9208 47.2759C49.228 43.4856 52.1686 38.3837 53.2892 32.7568C54.4098 27.1299 53.6482 21.2906 51.1218 16.1394L52.4765 15.4749Z" fill="#FF0000" fill-opacity="0.86"/>
</svg>
