<svg width="172" height="144" viewBox="0 0 172 144" fill="none" xmlns="http://www.w3.org/2000/svg">
<path d="M27.4451 142.874C26.1947 144.11 24.178 144.114 22.9744 142.833C12.1546 131.314 4.76297 117.038 1.65247 101.583C-1.66586 85.0943 0.0372239 68.0036 6.54636 52.4719C13.0555 36.9402 24.0783 23.665 38.221 14.3251C52.3636 4.98516 68.9908 -2.00474e-07 86 0C103.009 2.00474e-07 119.636 4.98516 133.779 14.3251C147.922 23.665 158.945 36.9402 165.454 52.4719C171.963 68.0036 173.666 85.0943 170.348 101.583C167.237 117.038 159.845 131.314 149.026 142.833C147.822 144.114 145.805 144.11 144.555 142.874C143.284 141.618 143.289 139.569 144.508 138.261C154.398 127.648 161.158 114.531 164.014 100.338C167.084 85.0872 165.508 69.2798 159.488 54.9143C153.468 40.5487 143.272 28.2703 130.192 19.6317C117.111 10.993 101.732 6.38217 86 6.38217C70.2679 6.38217 54.8892 10.993 41.8084 19.6317C28.7277 28.2703 18.5325 40.5487 12.5121 54.9143C6.49168 69.2798 4.91647 85.0872 7.98564 100.338C10.842 114.531 17.6017 127.648 27.4925 138.261C28.711 139.569 28.7163 141.618 27.4451 142.874Z" fill="#D9D9D9" fill-opacity="0.3"/>
</svg>
